<?xml version="1.0" encoding="UTF-8"?>
<svg xmlns="http://www.w3.org/2000/svg" width="210.0mm" height="297.0mm" viewBox="0 0 210.0 297.0">
<rect width="210.0" height="297.0" fill="#ffffff"/>
<g transform="translate(40.000,66.750) scale(0.01) translate(1500.0,10500.0)">

<path data-object="ARC_EG_EXT_WALLS" d="M 300.00,-2300.00 L 0.00,-2300.00 L 0.00,-2650.00 L 300.00,-2650.00 L 300.00,-2300.00 Z M 10185.00,-2650.00 L 10485.00,-2650.00 L 10485.00,-0.00 L 10185.00,-0.00 L 10185.00,-2650.00 Z" fill="#dedede" fill-rule="evenodd" stroke="#20252b" stroke-width="27.6"><title>ARC EG · Außenwände 300 mm mit Öffnungen</title></path>
<path data-object="ARC_EG_WINDOWS" d="M 165.00,-35.00 L 135.00,-35.00 L 135.00,-2265.00 L 165.00,-2265.00 L 165.00,-35.00 Z" fill="#dedede" fill-rule="evenodd" stroke="#20252b" stroke-width="27.6"><title>ARC EG · Fensterfüllungen</title></path>
<path data-object="ARC_EG_KITCHEN_WALL_175" d="M 5796.26,-2650.00 L 6890.00,-2650.00 L 6890.00,-0.00 L 5796.26,-0.00 L 5796.26,-2650.00 Z" fill="#dedede" fill-rule="evenodd" stroke="#20252b" stroke-width="27.6"><title>ARC EG · 175-mm-Zug Küche/Diele mit Kaminanschluss und Vorsprung</title></path>
<path data-object="ARC_EG_PARTITIONS" d="M 6890.00,-2650.00 L 7005.00,-2650.00 L 7005.00,-0.00 L 6890.00,-0.00 L 6890.00,-2650.00 Z M 7846.00,-2650.00 L 10185.00,-2650.00 L 10185.00,-0.00 L 7846.00,-0.00 L 7846.00,-2650.00 Z" fill="#dedede" fill-rule="evenodd" stroke="#20252b" stroke-width="27.6"><title>ARC EG · Innenwände 115 mm</title></path>
<path data-object="STR_EG_SLAB_180" d="M 10485.00,-2650.00 L 0.00,-2650.00 L 0.00,-2785.00 L 0.00,-2830.00 L 10485.00,-2830.00 L 10485.00,-2650.00 Z" fill="#dedede" fill-rule="evenodd" stroke="#20252b" stroke-width="27.6"><title>STR EG · Stahlbetondecke d=180 mm</title></path>
<path data-object="GEN_V3_WALL_RING_OG" d="M 300.00,-5330.00 L 300.00,-2930.00 L 0.00,-2930.00 L 0.00,-5330.00 L 300.00,-5330.00 Z M 10485.00,-5330.00 L 10485.00,-2930.00 L 10185.00,-2930.00 L 10185.00,-5330.00 L 10485.00,-5330.00 Z" fill="#fbe7e7" fill-rule="evenodd" stroke="#c1272d" stroke-width="27.6"><title>OG: gerade Außenwände, 2,40 m lichte Höhe</title></path>
<path data-object="GEN_V3_WALL_RING_DG" d="M 0.00,-7810.00 L 0.00,-9580.00 L 300.00,-9580.00 L 300.00,-7810.00 L 0.00,-7810.00 Z M 300.00,-5330.00 L 0.00,-5330.00 L 0.00,-5510.00 L 300.00,-5510.00 L 300.00,-5330.00 Z M 10185.00,-5330.00 L 10185.00,-9580.00 L 10485.00,-9580.00 L 10485.00,-5330.00 L 10185.00,-5330.00 Z" fill="#fbe7e7" fill-rule="evenodd" stroke="#c1272d" stroke-width="27.6"><title>DG: gerade Giebel unter 45°-Dach</title></path>
<path data-object="GEN_V3_PARTITIONS" d="M 6715.00,-2930.00 L 6360.00,-2930.00 L 6360.00,-5330.00 L 6715.00,-5330.00 L 6715.00,-2930.00 Z" fill="#fbe7e7" fill-rule="evenodd" stroke="#c1272d" stroke-width="27.6"><title>OG: Innenwände bis zur ebenen Decke</title></path>
<path data-object="GEN_V3_FLOOR_BUILDUP" d="M 0.00,-2930.00 L 10485.00,-2930.00 L 10485.00,-2855.00 L 10485.00,-2830.00 L 0.00,-2830.00 L 0.00,-2930.00 Z" fill="#fbe7e7" fill-rule="evenodd" stroke="#c1272d" stroke-width="27.6"><title>OG: Bodenaufbau bis zur geraden Nordfassade</title></path>
<path data-object="GEN_V3_ATELIER_FLOOR" d="M 10185.00,-5330.00 L 300.00,-5330.00 L 300.00,-5510.00 L 10185.00,-5510.00 L 10185.00,-5330.00 Z" fill="#fbe7e7" fill-rule="evenodd" stroke="#c1272d" stroke-width="27.6"><title>OG-Decke / DG-Boden, 18 cm Konstruktionszone</title></path>
<path data-object="GEN_V3_ATELIER_GLAZING" d="M 165.00,-5545.00 L 135.00,-5545.00 L 135.00,-7775.00 L 165.00,-7775.00 L 165.00,-5545.00 Z" fill="#fbe7e7" fill-rule="evenodd" stroke="#c1272d" stroke-width="27.6"><title>DG: Fenstertür West</title></path>
<path data-object="GEN_V3_ATELIER_DOOR_FRAME" d="M 165.00,-7775.00 L 135.00,-7775.00 L 135.00,-7810.00 L 165.00,-7810.00 L 165.00,-7775.00 Z M 165.00,-5510.00 L 135.00,-5510.00 L 135.00,-5545.00 L 165.00,-5545.00 L 165.00,-5510.00 Z" fill="#fbe7e7" fill-rule="evenodd" stroke="#c1272d" stroke-width="27.6"><title>DG: symbolischer Rahmen</title></path>
<path data-object="GEN_V3_ROOF" d="M 11235.00,-9580.00 L -750.00,-9580.00 L -750.00,-9730.00 L 11235.00,-9730.00 L 11235.00,-9580.00 Z" fill="#fbe7e7" fill-rule="evenodd" stroke="#c1272d" stroke-width="27.6"><title>45°-Satteldach ohne Gauben</title></path>
<path d="M 10650, 0 h 900" stroke="#52606a" stroke-width="15.0" fill="none"/>
<text x="10650" y="-65" font-family="Helvetica,Arial,sans-serif" font-size="253">+0.000</text>
<path d="M -1300, -2650 h 900" stroke="#52606a" stroke-width="15.0" fill="none"/>
<text x="-1300" y="-2715" font-family="Helvetica,Arial,sans-serif" font-size="253">+2.650</text>
<path d="M 10650, -2830 h 900" stroke="#52606a" stroke-width="15.0" fill="none"/>
<text x="10650" y="-2895" font-family="Helvetica,Arial,sans-serif" font-size="253">+2.830</text>
<path d="M -1300, -2930 h 900" stroke="#52606a" stroke-width="15.0" fill="none"/>
<text x="-1300" y="-2995" font-family="Helvetica,Arial,sans-serif" font-size="253">+2.930</text>
<path d="M 10650, -5330 h 900" stroke="#52606a" stroke-width="15.0" fill="none"/>
<text x="10650" y="-5395" font-family="Helvetica,Arial,sans-serif" font-size="253">+5.330</text>
<path d="M -1300, -5510 h 900" stroke="#52606a" stroke-width="15.0" fill="none"/>
<text x="-1300" y="-5575" font-family="Helvetica,Arial,sans-serif" font-size="253">+5.510</text>
<path d="M 10650, -9730 h 900" stroke="#52606a" stroke-width="15.0" fill="none"/>
<text x="10650" y="-9795" font-family="Helvetica,Arial,sans-serif" font-size="253">+9.730</text>
<text x="-1200" y="1650" font-family="Helvetica,Arial,sans-serif" font-size="195">Schnittebene Y = 4.370 m · Höhen relativ zu EG-FFB; absolute Koten separat</text>
<text x="-1200" y="1920" font-family="Helvetica,Arial,sans-serif" font-size="195">Schwarz: verbleibender Bestand · Rot: Planung · Maße in m</text>
<text x="-1200" y="2180" font-family="Helvetica,Arial,sans-serif" font-size="195">Garage: Dachschichten und seitlicher Abschluss offen; keine Aufmauerung modelliert.</text>
<text x="-1200" y="2440" font-family="Helvetica,Arial,sans-serif" font-size="184">* Garagen-FFB aus Schnitt; abweichend lesbare EG-Kote bleibt offen. Boden nur Oberflächenproxy.</text>
<text x="-1200" y="2700" font-family="Helvetica,Arial,sans-serif" font-size="190">OG → Atelier: 2.580 m · 13 Steigungen × 198.5 mm; Treppeneignung offen.</text>

</g>
<g font-family="Helvetica,Arial,sans-serif">
<rect x="20.0" y="254.0" width="10" height="1.6" fill="#16232a" stroke="#16232a" stroke-width="0.25"/>
<rect x="30.0" y="254.0" width="10" height="1.6" fill="#ffffff" stroke="#16232a" stroke-width="0.25"/>
<rect x="40.0" y="254.0" width="10" height="1.6" fill="#16232a" stroke="#16232a" stroke-width="0.25"/>
<rect x="50.0" y="254.0" width="10" height="1.6" fill="#ffffff" stroke="#16232a" stroke-width="0.25"/>
<rect x="60.0" y="254.0" width="10" height="1.6" fill="#16232a" stroke="#16232a" stroke-width="0.25"/>
<text x="20.0" y="259.2" font-size="2.4" text-anchor="middle" fill="#4a5560">0</text>
<text x="70.0" y="259.2" font-size="2.4" text-anchor="middle" fill="#4a5560">5</text>
<text x="73.0" y="259.2" font-size="2.4" fill="#4a5560">m</text>
<text x="20.0" y="252.4" font-size="2.6" font-weight="700" fill="#16232a">Maßstab 1:100</text>
</g>
<g font-family="Helvetica,Arial,sans-serif" fill="#16232a">
<text x="110.0" y="270.0" font-size="4.6" text-anchor="middle">Längsschnitt 1:100</text>
<text x="20.0" y="278.5" font-size="3.4" font-weight="700">Bauprojekt: Wohnhaus — Dachausbau, Variante 3</text>
<text x="20.0" y="284.5" font-size="2.9"></text>
<text x="200.0" y="284.5" font-size="2.9" text-anchor="end">Planverfasser: Bruno Ensminger, Architekt</text>
</g>
</svg>